<svg xmlns="http://www.w3.org/2000/svg" width="440" height="280" viewBox="0 0 440 280">
  <rect width="440" height="280" rx="12" fill="#0f1117"/>
  <!-- Browser chrome -->
  <rect y="0" width="440" height="32" fill="#2d3139"/>
  <circle cx="16" cy="16" r="6" fill="#f59e0b"/>
  <circle cx="40" cy="16" r="6" fill="#ef4444"/>
  <circle cx="64" cy="16" r="6" fill="#22c55e"/>
  <!-- Extension popup -->
  <rect x="40" y="40" width="360" height="220" rx="8" fill="#1a1d24" stroke="#2d3139" stroke-width="1"/>
  <!-- Header -->
  <text x="60" y="68" font-family="monospace" font-size="14" fill="#ffffff" font-weight="600">FastAPI Doc Gen</text>
  <text x="60" y="84" font-family="monospace" font-size="11" fill="#8b8f96">Capture APIs → Generate OpenAPI specs</text>
  <!-- Section header -->
  <text x="60" y="108" font-family="monospace" font-size="12" fill="#ffffff" font-weight="600">Generated Spec</text>
  <!-- Output area -->
  <rect x="60" y="120" width="340" height="140" rx="4" fill="#0f1117" stroke="#2d3139"/>
  <text x="72" y="140" font-family="monospace" font-size="9" fill="#22c55e">{"openapi": "3.0.3",</text>
  <text x="72" y="154" font-family="monospace" font-size="9" fill="#22c55e">"info": {"text x="72" y="168" font-family="monospace" font-size="9" fill="#22c55e">  "title": "Example API - Generated by FastAPI Doc Gen",</text>
  <text x="72" y="182" font-family="monospace" font-size="9" fill="#22c55e">  "version": "1.0.0"</text>
  <text x="72" y="196" font-family="monospace" font-size="9" fill="#22c55e">},</text>
  <text x="72" y="210" font-family="monospace" font-size="9" fill="#22c55e">"paths": {</text>
  <text x="72" y="224" font-family="monospace" font-size="9" fill="#22c55e">  "/v1/users": {"text x="72" y="238" font-family="monospace" font-size="9" fill="#22c55e">    "get": {"text x="72" y="252" font-family="monospace" font-size="9" fill="#22c55e">      "summary": "GET /v1/users"</text>
  <!-- Buttons -->
  <rect x="60" y="224" width="80" height="24" rx="4" fill="#2d3139"/>
  <text x="100" y="240" font-family="monospace" font-size="10" fill="#e4e6eb" text-anchor="middle">📋 Copy</text>
  <rect x="152" y="224" width="80" height="24" rx="4" fill="#2d3139"/>
  <text x="192" y="240" font-family="monospace" font-size="10" fill="#e4e6eb" text-anchor="middle">💾 Download</text>
  <rect x="244" y="224" width="80" height="24" rx="4" fill="#2d3139"/>
  <text x="284" y="240" font-family="monospace" font-size="10" fill="#e4e6eb" text-anchor="middle">🗑️ Clear</text>
</svg>