<svg xmlns="http://www.w3.org/2000/svg" width="440" height="280" viewBox="0 0 440 280">
  <rect width="440" height="280" rx="12" fill="#0f1117"/>
  <!-- Browser chrome -->
  <rect y="0" width="440" height="32" fill="#2d3139"/>
  <circle cx="16" cy="16" r="6" fill="#f59e0b"/>
  <circle cx="40" cy="16" r="6" fill="#ef4444"/>
  <circle cx="64" cy="16" r="6" fill="#22c55e"/>
  <!-- Extension popup -->
  <rect x="40" y="40" width="360" height="220" rx="8" fill="#1a1d24" stroke="#2d3139" stroke-width="1"/>
  <!-- Header -->
  <text x="60" y="68" font-family="monospace" font-size="14" fill="#ffffff" font-weight="600">FastAPI Doc Gen</text>
  <text x="60" y="84" font-family="monospace" font-size="11" fill="#8b8f96">Capture APIs → Generate OpenAPI specs</text>
  <!-- Section header -->
  <text x="60" y="108" font-family="monospace" font-size="12" fill="#ffffff" font-weight="600">Captured Endpoints</text>
  <!-- Endpoint items -->
  <rect x="60" y="120" width="340" height="28" rx="4" fill="#0f1117"/>
  <text x="72" y="138" font-family="monospace" font-size="11" fill="#3b82f6" font-weight="700">GET</text>
  <text x="100" y="138" font-family="monospace" font-size="10" fill="#cbd5e1">https://api.example.com/v1/users</text>
  <rect x="60" y="152" width="340" height="28" rx="4" fill="#0f1117"/>
  <text x="72" y="170" font-family="monospace" font-size="11" color="#22c55e" font-weight="700">POST</text>
  <text x="100" y="170" font-family="monospace" font-size="10" fill="#cbd5e1">https://api.example.com/v1/users</text>
  <rect x="60" y="184" width="340" height="28" rx="4" fill="#0f1117"/>
  <text x="72" y="202" font-family="monospace" font-size="11" fill="#f59e0b" font-weight="700">GET</text>
  <text x="100" y="202" font-family="monospace" font-size="10" fill="#cbd5e1">https://api.example.com/v1/users/123</text>
  <!-- Generate button -->
  <rect x="60" y="224" width="340" height="32" rx="6" fill="#22c55e"/>
  <text x="230" y="246" font-family="monospace" font-size="12" fill="#0f1117" text-anchor="middle">⚡ Generate OpenAPI</text>
</svg>